<?xml version="1.0" encoding="utf-8"?>
<!-- Generator: Adobe Illustrator 24.1.2, SVG Export Plug-In . SVG Version: 6.00 Build 0)  -->
<svg version="1.1" id="Layer_1" xmlns="http://www.w3.org/2000/svg" xmlns:xlink="http://www.w3.org/1999/xlink" x="0px" y="0px"
	 viewBox="0 0 521 215" style="enable-background:new 0 0 521 215;" xml:space="preserve">
<style type="text/css">
	.st0{fill:url(#SVGID_1_);}
	.st1{fill:url(#SVGID_2_);}
	.st2{fill:url(#SVGID_3_);}
	.st3{fill:url(#SVGID_4_);}
	.st4{fill:url(#SVGID_5_);}
	.st5{fill:url(#SVGID_6_);}
	.st6{fill:url(#SVGID_7_);}
	.st7{fill:url(#SVGID_8_);}
	.st8{fill:url(#SVGID_9_);}
	.st9{fill:url(#SVGID_10_);}
	.st10{fill:url(#SVGID_11_);}
	.st11{fill:url(#SVGID_12_);}
	.st12{fill:url(#SVGID_13_);}
	.st13{fill:url(#SVGID_14_);}
</style>
<desc>Created with Sketch.</desc>
<g>
	<linearGradient id="SVGID_1_" gradientUnits="userSpaceOnUse" x1="-4.1881" y1="132.0245" x2="518.8119" y2="230.0245">
		<stop  offset="0" style="stop-color:#845A21"/>
		<stop  offset="0.2817" style="stop-color:#CA9C5E"/>
		<stop  offset="0.5182" style="stop-color:#93682E"/>
		<stop  offset="0.8209" style="stop-color:#B98D50"/>
		<stop  offset="1" style="stop-color:#845A21"/>
	</linearGradient>
	<path class="st0" d="M197.2,161h-10.3c-1.5,0-2.4,0.3-2.9,0.8s-0.8,1.5-0.8,2.9v8.1c0,1.5,0.3,2.4,0.8,2.9s1.5,0.8,2.9,0.8h10.3
		c1.5,0,2.4-0.3,2.9-0.8s0.8-1.5,0.8-2.9v-5.1h-9.1v2h6.4v4.5h-12.4V163h12.4v2.5l2.7-0.5v-0.4c0-1.3-0.3-2.3-0.8-2.8
		S198.7,161,197.2,161z"/>
	<linearGradient id="SVGID_2_" gradientUnits="userSpaceOnUse" x1="-3.1962" y1="126.7306" x2="519.8038" y2="224.7306">
		<stop  offset="0" style="stop-color:#845A21"/>
		<stop  offset="0.2817" style="stop-color:#CA9C5E"/>
		<stop  offset="0.5182" style="stop-color:#93682E"/>
		<stop  offset="0.8209" style="stop-color:#B98D50"/>
		<stop  offset="1" style="stop-color:#845A21"/>
	</linearGradient>
	<path class="st1" d="M226,170.2c1.2,0,2-0.1,2.5-0.7c0.5-0.4,0.8-1.2,0.8-2.3v-3.5c0-1.1-0.3-1.7-0.8-2.3c-0.5-0.4-1.3-0.7-2.5-0.7
		h-12.8v15.3h2.7v-6h4.7l6.6,6h4l-7.4-6H226z M215.8,168.5V163h9.2c0.5,0,1.1,0.1,1.2,0.4c0.3,0.1,0.4,0.7,0.4,1.2v2.3
		c0,0.5-0.1,0.9-0.4,1.2c-0.3,0.3-0.7,0.4-1.3,0.4H215.8z"/>
	<linearGradient id="SVGID_3_" gradientUnits="userSpaceOnUse" x1="-2.2367" y1="121.6103" x2="520.7633" y2="219.6103">
		<stop  offset="0" style="stop-color:#845A21"/>
		<stop  offset="0.2817" style="stop-color:#CA9C5E"/>
		<stop  offset="0.5182" style="stop-color:#93682E"/>
		<stop  offset="0.8209" style="stop-color:#B98D50"/>
		<stop  offset="1" style="stop-color:#845A21"/>
	</linearGradient>
	<path class="st2" d="M251.8,160.9l-8.7,15.6h2.5l2-3.9h10.8l2,3.9h2.9l-8.8-15.6H251.8z M249,170.7l4.3-8l4.3,8H249z"/>
	<linearGradient id="SVGID_4_" gradientUnits="userSpaceOnUse" x1="-1.0004" y1="115.0122" x2="521.9996" y2="213.0122">
		<stop  offset="0" style="stop-color:#845A21"/>
		<stop  offset="0.2817" style="stop-color:#CA9C5E"/>
		<stop  offset="0.5182" style="stop-color:#93682E"/>
		<stop  offset="0.8209" style="stop-color:#B98D50"/>
		<stop  offset="1" style="stop-color:#845A21"/>
	</linearGradient>
	<path class="st3" d="M289.4,171.3l-11.9-10.4h-1.7v15.5h2.4v-9.2c0-0.7,0-1.3,0-1.9s-0.1-0.9-0.1-1.5c0.3,0.4,0.7,0.9,1.3,1.5
		c0.1,0.1,0.3,0.3,0.3,0.3l12.3,10.8h1.5v-15.6h-2.4v8.5c0,0.9,0,1.7,0,2.3s0,1.1,0.1,1.6c-0.3-0.4-0.7-0.7-0.9-1.1
		C290,171.8,289.7,171.5,289.4,171.3z"/>
	<linearGradient id="SVGID_5_" gradientUnits="userSpaceOnUse" x1="1.0897" y1="103.858" x2="524.0897" y2="201.858">
		<stop  offset="0" style="stop-color:#845A21"/>
		<stop  offset="0.2817" style="stop-color:#CA9C5E"/>
		<stop  offset="0.5182" style="stop-color:#93682E"/>
		<stop  offset="0.8209" style="stop-color:#B98D50"/>
		<stop  offset="1" style="stop-color:#845A21"/>
	</linearGradient>
	<path class="st4" d="M352.4,170.2c1.2,0,2-0.1,2.5-0.7c0.5-0.4,0.8-1.2,0.8-2.3v-3.5c0-1.1-0.3-1.7-0.8-2.3
		c-0.5-0.4-1.3-0.7-2.5-0.7h-12.8v15.3h2.7v-6h4.7l6.6,6h4l-7.4-6H352.4z M342.3,168.5V163h9.1c0.7,0,1.1,0.1,1.3,0.4
		c0.3,0.1,0.4,0.7,0.4,1.2v2.3c0,0.5-0.1,0.9-0.4,1.2c-0.3,0.3-0.7,0.4-1.3,0.4H342.3z"/>
	<linearGradient id="SVGID_6_" gradientUnits="userSpaceOnUse" x1="2.068" y1="98.6369" x2="525.0681" y2="196.6369">
		<stop  offset="0" style="stop-color:#845A21"/>
		<stop  offset="0.2817" style="stop-color:#CA9C5E"/>
		<stop  offset="0.5182" style="stop-color:#93682E"/>
		<stop  offset="0.8209" style="stop-color:#B98D50"/>
		<stop  offset="1" style="stop-color:#845A21"/>
	</linearGradient>
	<polygon class="st5" points="370.4,169.3 378.2,169.3 378.2,167.3 370.4,167.3 370.4,163 383.1,163 383.1,160.9 367.7,160.9 
		367.7,176.3 383.3,176.3 383.3,174.2 370.4,174.2 	"/>
	<linearGradient id="SVGID_7_" gradientUnits="userSpaceOnUse" x1="2.9224" y1="94.0773" x2="525.9224" y2="192.0773">
		<stop  offset="0" style="stop-color:#845A21"/>
		<stop  offset="0.2817" style="stop-color:#CA9C5E"/>
		<stop  offset="0.5182" style="stop-color:#93682E"/>
		<stop  offset="0.8209" style="stop-color:#B98D50"/>
		<stop  offset="1" style="stop-color:#845A21"/>
	</linearGradient>
	<path class="st6" d="M406.2,167.4h-10V163h11.2v2.3l2.3-0.7v-0.3c0-1.3-0.3-2.1-0.8-2.7c-0.5-0.5-1.5-0.8-2.9-0.8h-8.6
		c-1.5,0-2.4,0.3-2.9,0.8c-0.5,0.5-0.8,1.5-0.8,2.9v1.3c0,1.5,0.3,2.4,0.8,2.9c0.5,0.5,1.5,0.8,2.9,0.8h10v4.7h-11.9v-2.5l-2.4,0.5
		v0.5c0,1.5,0.3,2.4,0.8,2.9c0.5,0.5,1.5,0.8,2.9,0.8h9.4c1.5,0,2.4-0.3,2.9-0.8c0.5-0.5,0.8-1.5,0.8-2.9v-1.7
		c0-1.5-0.3-2.4-0.8-2.9C408.6,167.7,407.6,167.4,406.2,167.4z"/>
	<linearGradient id="SVGID_8_" gradientUnits="userSpaceOnUse" x1="3.875" y1="88.9936" x2="526.875" y2="186.9936">
		<stop  offset="0" style="stop-color:#845A21"/>
		<stop  offset="0.2817" style="stop-color:#CA9C5E"/>
		<stop  offset="0.5182" style="stop-color:#93682E"/>
		<stop  offset="0.8209" style="stop-color:#B98D50"/>
		<stop  offset="1" style="stop-color:#845A21"/>
	</linearGradient>
	<polygon class="st7" points="423.7,169.3 431.5,169.3 431.5,167.3 423.7,167.3 423.7,163 436.4,163 436.4,160.9 421,160.9 
		421,176.3 436.5,176.3 436.5,174.2 423.7,174.2 	"/>
	<linearGradient id="SVGID_9_" gradientUnits="userSpaceOnUse" x1="4.7717" y1="84.2079" x2="527.7717" y2="182.2079">
		<stop  offset="0" style="stop-color:#845A21"/>
		<stop  offset="0.2817" style="stop-color:#CA9C5E"/>
		<stop  offset="0.5182" style="stop-color:#93682E"/>
		<stop  offset="0.8209" style="stop-color:#B98D50"/>
		<stop  offset="1" style="stop-color:#845A21"/>
	</linearGradient>
	<path class="st8" d="M460.9,170.2c1.2,0,2-0.1,2.5-0.7c0.5-0.4,0.8-1.2,0.8-2.3v-3.5c0-1.1-0.3-1.7-0.8-2.3
		c-0.5-0.4-1.3-0.7-2.5-0.7h-12.8v15.3h2.7v-6h4.7l6.6,6h4l-7.4-6H460.9z M450.7,168.5V163h9.1c0.7,0,1.2,0.1,1.3,0.4
		c0.3,0.1,0.4,0.7,0.4,1.2v2.3c0,0.5-0.1,0.9-0.4,1.2s-0.7,0.4-1.3,0.4H450.7z"/>
	<linearGradient id="SVGID_10_" gradientUnits="userSpaceOnUse" x1="5.8651" y1="78.3728" x2="528.8651" y2="176.3728">
		<stop  offset="0" style="stop-color:#845A21"/>
		<stop  offset="0.2817" style="stop-color:#CA9C5E"/>
		<stop  offset="0.5182" style="stop-color:#93682E"/>
		<stop  offset="0.8209" style="stop-color:#B98D50"/>
		<stop  offset="1" style="stop-color:#845A21"/>
	</linearGradient>
	<polygon class="st9" points="483.7,173.8 476.6,160.9 473.8,160.9 482.5,176.5 484.7,176.5 493,160.9 490.3,160.9 	"/>
	<linearGradient id="SVGID_11_" gradientUnits="userSpaceOnUse" x1="6.444" y1="75.2836" x2="529.444" y2="173.2836">
		<stop  offset="0" style="stop-color:#845A21"/>
		<stop  offset="0.2817" style="stop-color:#CA9C5E"/>
		<stop  offset="0.5182" style="stop-color:#93682E"/>
		<stop  offset="0.8209" style="stop-color:#B98D50"/>
		<stop  offset="1" style="stop-color:#845A21"/>
	</linearGradient>
	<path class="st10" d="M507.7,160.9l-8.7,15.6h2.5l2-3.9h10.8l2,3.9h2.9l-8.8-15.6H507.7z M504.8,170.7l4.3-8l4.3,8H504.8z"/>
	<linearGradient id="SVGID_12_" gradientUnits="userSpaceOnUse" x1="6.447" y1="75.2675" x2="529.447" y2="173.2675">
		<stop  offset="0" style="stop-color:#845A21"/>
		<stop  offset="0.2817" style="stop-color:#CA9C5E"/>
		<stop  offset="0.5182" style="stop-color:#93682E"/>
		<stop  offset="0.8209" style="stop-color:#B98D50"/>
		<stop  offset="1" style="stop-color:#845A21"/>
	</linearGradient>
	<path class="st11" d="M284.4,127.9l-2.7-1.3c-2.4,2.9-4.7,4.9-6.4,6c-1.7,0.9-4.3,1.5-7.5,1.5c-6.7,0-11-3.2-12.7-9.6
		c-0.8-3.1-1.2-8.8-1.2-17.3V57.3c0-6.4-0.4-10.9-1.2-13.6c-1.6-5.3-5.9-9.6-12.6-12.9c-4.7-2.3-10.4-4.1-17.4-5.6
		c-7-1.5-13.7-2.1-19.9-2.1c-5.6,0-11.5,0.5-17.4,1.6c-5.9,1.1-11,2.4-15,4c-7.5,3.2-11.1,7.1-11.1,11.6c0,3.1,1.2,5.6,3.6,7.6
		s5.4,3.1,8.8,3.1c5.4,0,9.1-2.1,11.1-6.4l3.9-7.9c1.6-3.3,4.1-6,7.4-7.9c3.3-1.9,7.1-2.8,11.2-2.8c3.5,0,6.8,0.7,10.2,2
		c3.2,1.3,5.9,3.2,8,5.5c4.6,4.9,6.8,12.5,6.8,23.1c0,4.9-0.7,8.8-1.9,11.6c-1.2,2.8-3.5,5.2-6.8,7.3c-2.9,1.9-6.4,3.5-10.7,4.9
		c-4.3,1.3-11,3.1-19.9,5.1c-7.6,1.7-13.5,3.5-17.5,5.1c-4,1.7-7.6,3.9-10.7,6.7c-5.5,5.1-8.2,11.3-8.2,18.8c0,6.1,2,11.5,5.9,15.6
		c-5.5,15.1-13.8,25.7-24.9,31.7c-6,3.2-14.3,5.6-24.9,7.1c-10.6,1.6-24.2,2.3-40.7,2.3H40.8L160.8,4.5V0.1H17.1l-4.6,44l4.1,0.4
		c4.1-11.2,8.6-19.3,13.1-24.5c4.8-5.3,10.4-9.1,16.7-11.1s15-3.2,26.5-3.2h47.1L0.1,174.1v4.1h160.7l4-42.9
		c6.6,4.5,15.5,6.9,26.6,6.9c8.8,0,16.7-1.6,23.4-4.9c3.5-1.7,8.7-5.3,15.7-10.7c3.3,5.2,6.7,8.8,9.9,10.8c4.8,3.2,11,4.8,18.3,4.8
		C272,142.2,280.6,137.4,284.4,127.9z M230.3,95.9c0,11.5-1.6,20.1-4.8,26.3c-2.3,4.5-5.6,8.3-10,11.1s-9.2,4.1-14.3,4.1
		c-5.8,0-10.6-2-14.3-5.9c-3.7-3.9-5.6-8.8-5.6-14.8c0.1-6.8,2.5-12.9,7.4-18.1c2.4-2.5,5-4.7,7.9-6.5c2.9-1.7,8-4.4,15.5-8
		c6.7-3.1,12.8-6.7,18.3-10.7V95.9z"/>
	<linearGradient id="SVGID_13_" gradientUnits="userSpaceOnUse" x1="19.6283" y1="4.9223" x2="542.6284" y2="102.9223">
		<stop  offset="0" style="stop-color:#845A21"/>
		<stop  offset="0.2817" style="stop-color:#CA9C5E"/>
		<stop  offset="0.5182" style="stop-color:#93682E"/>
		<stop  offset="0.8209" style="stop-color:#B98D50"/>
		<stop  offset="1" style="stop-color:#845A21"/>
	</linearGradient>
	<path class="st12" d="M520.3,128.1l-2.7-1.3c-2.4,2.9-4.6,4.9-6.6,5.9c-1.7,0.9-4.3,1.5-7.5,1.5c-6.7,0-11-3.2-12.7-9.6
		c-0.8-3.1-1.2-8.8-1.2-17.3v-50c0-6.4-0.4-10.9-1.2-13.6c-1.7-5.3-5.9-9.6-12.6-12.9c-4.7-2.3-10.4-4.1-17.4-5.6
		c-6.8-1.5-13.5-2.1-19.9-2.1c-5.6,0-11.5,0.5-17.4,1.6c-6,1.1-11,2.4-15,4c-7.4,3.1-11.1,7.1-11.1,11.6c0,3.1,1.2,5.6,3.6,7.6
		s5.4,3.1,8.8,3.1c5.4,0,9.1-2.1,11.1-6.4l3.9-7.9c1.6-3.3,4-6,7.4-7.9c3.2-1.9,7-2.8,11.2-2.8c3.5,0,7,0.7,10.2,2
		c3.3,1.5,6,3.2,8,5.5c4.6,4.8,6.8,12.5,6.8,23.1c0,4.9-0.7,8.8-1.9,11.6c-1.2,2.8-3.5,5.2-6.8,7.3c-2.8,2-6.4,3.6-10.7,4.9
		c-4.3,1.5-11,3.1-19.9,5.1c-7.6,1.7-13.5,3.3-17.5,5.1c-4,1.6-7.6,3.9-10.7,6.7c-5.5,5.1-8.2,11.3-8.2,18.8c0,8.1,3.3,14.5,10,19.3
		c6.7,4.8,15.7,7.2,27,7.2c9,0,16.7-1.7,23.4-4.9c3.5-1.7,8.7-5.2,15.7-10.7c3.3,5.1,6.7,8.7,9.9,10.8c5,3.2,11,4.8,18.3,4.8
		C508.2,142.3,516.6,137.5,520.3,128.1z M466.7,96.1c0,11.5-1.6,20.3-4.8,26.3c-2.1,4.7-5.6,8.3-10,11.1c-4.6,2.8-9.2,4.1-14.3,4.1
		c-5.8,0-10.6-2-14.3-5.9c-3.7-4-5.6-8.8-5.6-14.8c0-6.9,2.4-13.1,7.2-18.3c2.4-2.5,5-4.7,7.9-6.5c2.8-1.9,8-4.5,15.5-8
		c6.7-3.1,12.8-6.7,18.3-10.7h0.1V96.1z"/>
	<linearGradient id="SVGID_14_" gradientUnits="userSpaceOnUse" x1="9.5387" y1="58.7677" x2="532.5388" y2="156.7677">
		<stop  offset="0" style="stop-color:#845A21"/>
		<stop  offset="0.2817" style="stop-color:#CA9C5E"/>
		<stop  offset="0.5182" style="stop-color:#93682E"/>
		<stop  offset="0.8209" style="stop-color:#B98D50"/>
		<stop  offset="1" style="stop-color:#845A21"/>
	</linearGradient>
	<path class="st13" d="M346.1,28.5c4.6,0.7,8.2,2.3,10.6,5.1c2.4,2.7,3.6,6.4,3.6,11.1c0,5.9-2.7,15.7-7.9,29.7l-21.3,56.1
		l-24.4-66.8c-3.9-10.7-5.9-18.1-5.9-22.3c0-4.7,1.9-8.3,5.6-10.5c1.7-1.1,4.6-1.9,8.6-2.5v-3.5h-56.1v3.3c3.3,0.4,6.3,1.6,8.7,3.6
		c1.5,1.3,2.9,3.3,4.4,6.1c1.5,2.8,3.5,7.5,6.2,14.1l4.3,11.2l30.1,77.7c3.6,9.6,5.5,16.3,5.5,20.1c0,2.7-1.1,6.5-2.9,11.6
		l-4.6,11.9c-3.7,9.7-8.6,14.5-14.6,14.5c-1.2,0-2.3-0.3-3.2-0.5c-0.9-0.4-2.9-1.2-6.2-2.5c-3.3-1.5-6.2-2.1-8.7-2.1
		c-2.9,0-5.4,0.8-7.2,2.4c-1.9,1.7-2.8,3.9-2.8,6.5c0,3.5,1.5,6.3,4.7,8.4c3.2,2.1,7.4,3.2,12.4,3.2c8,0,14.7-3.3,19.9-9.9
		c3.1-4,7.1-12.5,12.2-25.6l42.2-109.7c6.2-15.9,10.6-26.1,13.4-30.7c1.9-2.9,3.7-5.1,5.8-6.4c2-1.3,5.1-2.7,9.2-3.9V25h-41.6V28.5z
		"/>
</g>
</svg>
